<?xml version="1.0" encoding="UTF-8"?><svg id="Layer_2" xmlns="http://www.w3.org/2000/svg" viewBox="0 0 124.56 33.41"><defs><style>.cls-1{fill:none;stroke:#2e3192;stroke-miterlimit:10;}</style></defs><g id="Layer_1-2"><polyline class="cls-1" points=".39 33.1 2.47 30.52 4.33 27.79 6.29 26.42 8.26 24.61 10.23 22.87 12.2 22.05 14.16 21.21 16.13 20.17 18.1 18.5 20.07 17.53 22.04 16.09 24 15.17 25.97 15.06 27.94 14.06 29.91 13.42 31.88 13.25 33.84 11.59 35.81 10.6 37.78 10.4 39.75 10.4 41.72 10.4 43.68 9.08 45.65 8.46 47.62 9.23 49.59 9.37 51.55 10.12 53.52 10.93 55.49 9.79 57.46 8.46 59.43 9.28 61.39 9.26 63.36 8.46 65.33 9.01 67.3 7.91 69.27 6.23 71.23 5.26 73.2 5 75.17 4.38 77.14 5.17 79.11 4.38 81.07 4.2 83.04 3.52 85.01 3.43 86.98 3.43 88.94 3.43 90.91 3.15 92.88 2.33 94.85 2.33 96.82 2.33 98.78 1.65 100.75 1.29 102.72 1.29 104.69 1.69 106.66 2.31 108.62 1.45 110.59 1.4 112.56 1.29 114.53 2.02 116.5 2.31 118.46 1.91 120.43 .92 122.4 .52 124.37 1.34"/></g></svg>