<?xml version="1.0" encoding="UTF-8"?><svg id="Layer_2" xmlns="http://www.w3.org/2000/svg" viewBox="0 0 124.75 36.28"><defs><style>.cls-1{fill:none;stroke:#808285;stroke-miterlimit:10;}</style></defs><g id="Layer_1-2"><polyline class="cls-1" points=".43 36.03 2.4 32.68 4.37 31.55 6.33 29.43 8.3 28.23 10.27 28.23 12.24 27.12 14.21 25.95 16.17 23.28 18.14 20.79 20.11 18.14 22.08 16.13 24.05 14.35 26.01 12.34 27.98 10.27 29.95 10.27 31.92 8.41 33.89 8.35 35.85 7.55 37.82 7.97 39.79 7.55 41.76 6.6 43.72 7.2 45.69 6.52 47.66 7.42 49.63 7.4 51.6 7.99 53.56 6.36 55.53 5.77 57.5 5.96 59.47 4.55 61.44 5.43 63.4 5.32 65.37 4.55 67.34 5.15 69.31 7.55 71.28 8.55 73.24 7.75 75.21 9.71 77.18 11.26 79.15 11.26 81.12 10.57 83.08 10.42 85.05 8.43 87.02 7.31 88.99 6.93 90.95 4.73 92.92 2.24 94.89 .63 96.86 1.99 98.83 2.39 100.79 2.35 102.76 1.99 104.73 1.38 106.7 2.04 108.67 5.28 110.63 7.07 112.6 5.77 114.57 5.48 116.54 6.03 118.51 6.82 120.47 7.51 122.44 7.16 124.41 5.35"/></g></svg>