<?xml version="1.0" encoding="UTF-8"?><svg id="Layer_2" xmlns="http://www.w3.org/2000/svg" viewBox="0 0 124.39 28.46"><defs><style>.cls-1{fill:none;stroke:#ed1c24;stroke-miterlimit:10;}</style></defs><g id="Layer_1-2"><polyline class="cls-1" points=".39 28.15 2.36 25.68 4.33 24.58 6.29 23.08 8.26 21.83 10.23 20.62 12.2 18.86 14.17 17.08 16.13 15.45 18.1 14.53 20.07 12.08 22.04 11.99 24.01 11.99 25.97 11.06 27.94 10.4 29.91 10.33 31.88 9.49 33.85 10.25 35.81 11.11 37.78 10.08 39.75 9.75 41.72 10.84 43.68 11.11 45.65 9.18 47.62 7.47 49.59 7.47 51.56 7.47 53.52 7.47 55.49 6.5 57.46 4.99 59.43 4.12 61.4 2.78 63.36 5.08 65.33 4.46 67.3 3.06 69.27 3.56 71.24 4.86 73.2 5.39 75.17 5.84 77.14 7.05 79.11 4.7 81.07 4.52 83.04 5.08 85.01 4.36 86.98 2.92 88.95 2.36 90.91 2.65 92.88 3.5 94.85 4.24 96.82 2.71 98.79 2.36 100.75 2.36 102.72 2.36 104.69 2.72 106.66 3.08 108.63 1.43 110.52 1.43 112.56 1.43 114.53 .71 116.5 .5 118.46 .81 120.43 2 122.4 3.36 124.37 3.45"/></g></svg>