<?xml version="1.0" encoding="UTF-8"?><svg id="Layer_2" xmlns="http://www.w3.org/2000/svg" viewBox="0 0 124.36 28.26"><defs><style>.cls-1{fill:none;stroke:#ed1c24;stroke-miterlimit:10;}</style></defs><g id="Layer_1-2"><polyline class="cls-1" points=".38 27.94 2.18 25.82 3.97 24.66 5.77 23.46 7.57 22.21 9.37 21.29 11.16 19.63 12.96 18.16 14.76 16.57 16.55 15.15 18.35 14.37 20.15 11.99 21.94 11.85 23.74 12.07 25.54 11.19 27.33 10.46 29.13 10.31 30.93 9.81 32.72 9.72 34.52 10.57 36.32 11.26 38.11 9.78 39.91 10.01 41.71 10.81 43.5 11.1 45.3 9.44 47.1 7.9 48.89 7.32 50.69 7.32 52.49 7.32 54.28 7.32 56.08 5.9 57.88 4.78 59.67 3.6 61.47 2.69 63.27 5.09 65.07 4.63 66.86 3.4 68.66 2.94 70.46 4.37 72.25 5.34 74.05 5.41 75.85 6.31 77.64 6.34 79.44 4.28 81.24 4.28 83.03 5.09 84.83 4.19 86.63 3.03 88.42 2.29 90.22 2.29 92.02 3.03 93.81 3.9 95.61 3.88 97.41 2.29 99.2 2.29 101 2.29 102.8 2.29 104.59 2.6 106.39 3.26 108.19 1.72 109.98 1.38 111.78 1.38 113.58 1.13 115.37 .5 117.17 .5 118.97 1.06 120.77 2.43 122.56 3.41 124.36 3.41"/></g></svg>