<?xml version="1.0" encoding="UTF-8"?><svg id="Layer_2" xmlns="http://www.w3.org/2000/svg" viewBox="0 0 124.6 33.55"><defs><style>.cls-1{fill:none;stroke:#2e3192;stroke-miterlimit:10;}</style></defs><g id="Layer_1-2"><polyline class="cls-1" points=".39 33.23 2.19 30.97 3.99 28.57 5.78 26.88 7.58 25.82 9.38 23.44 11.17 22.53 12.97 21.79 14.77 21.12 16.56 20.12 18.36 18.35 20.16 17.62 21.95 16.26 23.75 15.29 25.55 15.29 27.34 14.41 29.14 13.65 30.94 13.41 32.73 12.85 34.53 11.15 36.33 10.53 38.12 10.38 39.92 10.38 41.72 9.97 43.51 9.21 45.31 8.53 47.11 9.23 48.9 9.47 50.7 9.79 52.5 10.68 54.29 11.21 56.09 9.26 57.89 8.94 59.69 9.5 61.48 9.41 63.28 8.53 65.08 9.18 66.87 8.44 68.67 6.68 70.47 5.32 72.26 5.32 74.06 4.71 75.86 4.94 77.65 5.21 79.45 4.41 81.25 4.41 83.04 3.68 84.84 3.44 86.64 3.44 88.43 3.44 90.23 3.44 92.03 2.73 93.82 2.32 95.62 2.32 97.42 2.32 99.21 1.56 101.01 1.56 102.81 1.56 104.6 1.71 106.4 2.29 108.2 1.65 109.99 1.56 111.79 1.56 113.59 1.68 115.39 2.35 117.18 2.44 118.98 1.79 120.78 .94 122.57 .53 124.37 1.47"/></g></svg>