<?xml version="1.0" encoding="UTF-8"?><svg id="Layer_2" xmlns="http://www.w3.org/2000/svg" viewBox="0 0 124.69 36.09"><defs><style>.cls-1{fill:none;stroke:#808285;stroke-miterlimit:10;}</style></defs><g id="Layer_1-2"><polyline class="cls-1" points=".43 35.83 2.22 32.85 4.02 31.48 5.82 30.08 7.62 28.13 9.41 28.13 11.21 27.38 13.01 26.5 14.8 25 16.6 22.6 18.4 20.26 20.19 17.88 21.99 16.06 23.79 14.41 25.58 12.71 27.38 10.4 29.18 10.23 30.97 9.06 32.77 8.14 34.57 8.1 36.36 7.38 38.16 8.03 39.96 7.16 41.75 6.57 43.55 7.08 45.35 6.39 47.14 6.97 48.94 7.21 50.74 7.48 52.53 7.92 54.33 5.43 56.13 5.95 57.92 5.15 59.72 4.4 61.52 5.23 63.32 5.2 65.11 4.53 66.91 4.82 68.71 6.36 70.5 8.89 72.3 7.47 74.1 8.53 75.89 10.22 77.69 11.15 79.49 11.17 81.28 10.38 83.08 10.18 84.88 8.66 86.67 7.21 88.47 7.17 90.27 5.44 92.06 3.14 93.86 1.29 95.66 .58 97.45 2.13 99.25 2.15 101.05 2.19 102.84 1.76 104.64 1.18 106.44 1.55 108.23 4.72 110.03 6.56 111.83 6.33 113.62 5.18 115.42 5.34 117.22 6.17 119.02 6.84 120.81 7.18 122.61 6.76 124.41 5.55"/></g></svg>